<?xml version="1.0" encoding="UTF-8"?> <!-- Generator: Adobe Illustrator 23.0.1, SVG Export Plug-In . SVG Version: 6.00 Build 0) --> <svg xmlns="http://www.w3.org/2000/svg" xmlns:xlink="http://www.w3.org/1999/xlink" x="0px" y="0px" viewBox="0 0 512 496" style="enable-background:new 0 0 512 496;" xml:space="preserve"> <style type="text/css"> .st0{fill:#FFF9EF;} .st1{fill:#C34323;} .st2{fill:#9B1519;} .st3{fill:#87CED9;} .st4{fill:#FFB739;} .st5{fill:#FC9F0B;} .st6{fill:#00893A;} .st7{fill:#EA7C2C;} .st8{fill:#E45530;} .st9{fill:#7DC6D1;} .st10{fill:#5E5E5E;} </style> <g id="Camada_2"> <rect x="222.4" y="360.9" class="st0" width="67.2" height="135.1"></rect> </g> <g id="Capa_1"> <path class="st1" d="M298,319h-84l-31.4-97.5C156.4,139.5,186,50,256,0l0,0c70,50,99.6,139.5,73.3,221.4L298,319z"></path> <path class="st2" d="M204,287.9l10,31.1h84l31.4-97.5c10.7-33.5,12.3-69.2,4.6-103.5C298.4,222.7,242.1,268.3,204,287.9z"></path> <ellipse class="st3" cx="256" cy="159.5" rx="42" ry="42"></ellipse> <path class="st4" d="M255.8,341.5c-18,0.1-33.1,14.7-33.1,32.7c-0.1,16.8,24.4,52.5,32.7,64.8c7.9-11.6,32.3-48.3,32.4-65.1 C287.9,355.9,273.8,341.4,255.8,341.5z"></path> <path class="st5" d="M255.8,341.5l-0.5,97.5c7.9-11.6,32.3-48.3,32.4-65.1C287.9,355.9,273.8,341.4,255.8,341.5z"></path> <polygon class="st6" points="230.8,319 222.4,360.9 289.6,360.9 281.2,319 "></polygon> <g> <path class="st7" d="M172.1,377.7l6.3-44.3c1.2-8.3,8.3-14.4,16.6-14.4h19l-29.5-91.8c-44.5,31.8-54.8,93.7-22.9,138.2 C164.7,369.7,168.2,373.9,172.1,377.7z"></path> <path class="st7" d="M339.9,377.7l-6.3-44.3c-1.2-8.3-8.3-14.4-16.6-14.4h-19l29.5-91.8c44.5,31.8,54.8,93.7,22.9,138.2 C347.3,369.7,343.8,373.9,339.9,377.7z"></path> </g> <g> <rect x="214" y="235" class="st8" width="16.8" height="16.8"></rect> <rect x="247.6" y="235" class="st8" width="16.8" height="16.8"></rect> <rect x="281.2" y="235" class="st8" width="16.8" height="16.8"></rect> </g> <path class="st7" d="M315,67.2H196.9c-2.9,5.5-5.7,11.1-8.1,16.8h134.4C320.8,78.2,318,72.6,315,67.2z"></path> <path class="st9" d="M237.3,197.1c20.6,10.4,45.9,2.2,56.3-18.5c10.4-20.6,2.2-45.9-18.5-56.3c-0.8-0.4-1.6-0.8-2.4-1.1 L237.3,197.1z"></path> <path class="st7" d="M258.4,315.1v-25.9v-25.9h-5.2v51.8H258.4z"></path> <rect x="185.7" y="399" class="st10" width="4.2" height="46"></rect> <rect x="221.1" y="422" class="st10" width="4.2" height="46"></rect> <rect x="148.1" y="367.2" class="st10" width="4.2" height="46"></rect> <rect x="324" y="403.4" class="st10" width="4.2" height="46"></rect> <rect x="288.5" y="426.4" class="st10" width="4.2" height="46"></rect> <rect x="361.5" y="371.6" class="st10" width="4.2" height="46"></rect> </g> </svg> 