<?xml version="1.0" encoding="UTF-8"?> <!-- Generator: Adobe Illustrator 23.0.1, SVG Export Plug-In . SVG Version: 6.00 Build 0) --> <svg xmlns="http://www.w3.org/2000/svg" xmlns:xlink="http://www.w3.org/1999/xlink" id="Camada_1" x="0px" y="0px" viewBox="0 0 1240 500" style="enable-background:new 0 0 1240 500;" xml:space="preserve"> <style type="text/css"> .st0{fill:#FFFAF0;} </style> <path class="st0" d="M696,119.1c7.1,0,12.9-5.8,12.9-12.9V63.1c0-7.1-5.8-12.9-12.9-12.9h-60.4c-7.1,0-12.9,5.8-12.9,12.9v43.1 c0,7.1,5.8,12.9,12.9,12.9h12.9v8.6H640v8.6h21.6v43.1h-17.8c-3.4-3.4-7.7-5.9-12.4-7.3c0-0.4,0-0.9,0-1.3c0-19-15.5-34.5-34.5-34.5 c-11.8,0-22.8,6.1-29.1,16c-4.4-2-9.2-3-14.1-3c-14.3,0-27.2,9-32.2,22.3c-3.3,0.7-6.3,2-9.1,3.6h-32v-12.9h17.3 c7.1,0,12.9-5.8,12.9-12.9V63.1c0-7.1-5.8-12.9-12.9-12.9h-43.1c-7.1,0-12.9,5.8-12.9,12.9v86.3c0,7.1,5.8,12.9,12.9,12.9h17.3v21.6 h31.4c-1.8,2.6-3.3,5.5-4.2,8.6h-18.6v47.4h-17.3c-7.1,0-12.9,5.8-12.9,12.9v38.8h-8.6v12.9c0,7.1,5.8,12.9,12.9,12.9h69 c7.1,0,12.9-5.8,12.9-12.9v-12.9h-8.6v-38.8c0-7.1-5.8-12.9-12.9-12.9H489v-38.8h8.6c0,16.6,13.5,30.2,30.2,30.2h94.9 c15.2,0,27.7-11.3,29.8-25.9h17.6v34.5H640v77.6h69v-77.6h-30.2v-43.1h-26.2c-0.4-3-1.4-5.9-2.7-8.6h20.3v-51.8h21.6v-8.6h-8.6v-8.6 H696z M501.9,119.1h-51.8V76h51.8V119.1z M454.5,58.7h43.1c2.4,0,4.3,1.9,4.3,4.3v4.3h-51.8v-4.3C450.2,60.7,452.1,58.7,454.5,58.7z M450.2,149.3v-21.6h51.8v21.6c0,2.4-1.9,4.3-4.3,4.3h-43.1C452.1,153.6,450.2,151.7,450.2,149.3z M527.8,304.6 c0,2.4-1.9,4.3-4.3,4.3h-69c-2.4,0-4.3-1.9-4.3-4.3v-4.3h77.6V304.6z M519.2,252.8v38.8h-60.4v-38.8c0-2.4,1.9-4.3,4.3-4.3h51.8 C517.3,248.5,519.2,250.4,519.2,252.8z M648.6,308.9V283h51.8v25.9H648.6z M700.3,274.4h-51.8v-25.9h51.8V274.4z M622.7,222.6h-94.9 c-11.9,0-21.6-9.7-21.6-21.6c0-10.9,8.2-20.1,19-21.4l2.8-0.3l0.8-2.7c3.2-11,13.4-18.7,24.8-18.7c4.8,0,9.4,1.3,13.5,3.9l4.1,2.5 l2.1-4.4c4.2-9.1,13.4-15,23.4-15c14.3,0,25.9,11.6,25.9,25.9c0,1.2-0.1,2.5-0.3,4l-0.7,4.3l4.3,0.6c10.4,1.6,18.3,10.7,18.3,21.3 C644.3,213,634.6,222.6,622.7,222.6z M635.6,58.7H696c2.4,0,4.3,1.9,4.3,4.3v30.2h-69V63.1C631.3,60.7,633.3,58.7,635.6,58.7z M631.3,106.2v-4.3h69v4.3c0,2.4-1.9,4.3-4.3,4.3h-60.4C633.3,110.5,631.3,108.6,631.3,106.2z M674.5,127.7h-17.3v-8.6h17.3V127.7z"></path> <g> <g> <path class="st0" d="M426.6,424.1c-6.2,0-11.5,4.2-13.1,9.9h-35.1v-25.4h10.8c10.8,0,19.6-8.8,19.6-19.5 c0-10.8-8.8-19.5-19.6-19.5V240.2c0-2.1-1.7-3.7-3.7-3.7h-64.4c-2.1,0-3.7,1.7-3.7,3.7v90.5c-2.2-1.2-4.5-2.1-6.9-2.8v-87.7 c0-2.1-1.7-3.7-3.7-3.7h-64.4c-2.1,0-3.7,1.7-3.7,3.7v75.3c0,2.1,1.7,3.7,3.7,3.7c2.1,0,3.7-1.7,3.7-3.7v-2h57v13.3 c-0.1,0-0.2,0-0.2,0c-15,0-27.5,10.8-30.1,25.1c-2.8-1.3-5.9-1.9-9.1-1.9c-7.1,0-13.5,3.3-17.6,8.5v-27c0-2.1-1.7-3.7-3.7-3.7 c-2.1,0-3.7,1.7-3.7,3.7v38c-0.3,0-0.7,0-1,0c-10.8,0-19.6,8.8-19.6,19.5c0,10.8,8.8,19.5,19.6,19.5h10.8V434h-35.1 c-1.6-5.7-6.9-9.9-13.1-9.9c-7.5,0-13.6,6.1-13.6,13.6c0,7.5,6.1,13.6,13.6,13.6c6.2,0,11.5-4.2,13.1-9.9h38.8 c2.1,0,3.7-1.7,3.7-3.7v-29.1h16v2.1c0,2.1,1.7,3.7,3.7,3.7s3.7-1.7,3.7-3.7v-2.1h30.5v35.2c-5.7,1.6-9.9,6.9-9.9,13.1 c0,7.5,6.1,13.6,13.6,13.6s13.6-6.1,13.6-13.6c0-6.2-4.2-11.5-9.9-13.1v-35.2h30.5v54.8c-5.7,1.6-9.9,6.9-9.9,13.1 c0,7.5,6.1,13.6,13.6,13.6S365,484,365,476.5c0-6.2-4.2-11.5-9.9-13.1v-54.8h16v29.1c0,2.1,1.7,3.7,3.7,3.7h38.8 c1.6,5.7,6.9,9.9,13.1,9.9c7.5,0,13.6-6.1,13.6-13.6C440.3,430.2,434.2,424.1,426.6,424.1z M200.2,443.9c-3.4,0-6.2-2.8-6.2-6.2 c0-3.4,2.8-6.2,6.2-6.2s6.2,2.8,6.2,6.2C206.4,441.1,203.7,443.9,200.2,443.9z M324.8,243.9h57v13.7h-57V243.9z M324.8,313.5h36.1 c2.1,0,3.7-1.7,3.7-3.7c0-2.1-1.7-3.7-3.7-3.7h-36.1V265h57v41.1h-4.9c-2.1,0-3.7,1.7-3.7,3.7c0,2.1,1.7,3.7,3.7,3.7h4.9v56 c-2.5-6.5-8.8-11.2-16.2-11.2c-0.4,0-0.7,0-1.1,0c0-0.3,0-0.7,0-1c0-11.9-9.7-21.6-21.6-21.6c-5.4,0-10.4,2-14.3,5.4 c-1.1-1.8-2.4-3.4-3.8-4.9V313.5z M246.1,243.9h57v13.7h-57V243.9z M246.1,306.1V265h57v41.1H246.1z M319.6,456.9 c0,3.4-2.8,6.2-6.2,6.2c-3.4,0-6.2-2.8-6.2-6.2c0-3.4,2.8-6.2,6.2-6.2C316.9,450.7,319.6,453.5,319.6,456.9z M357.5,476.5 c0,3.4-2.8,6.2-6.2,6.2s-6.2-2.8-6.2-6.2c0-3.4,2.8-6.2,6.2-6.2S357.5,473.1,357.5,476.5z M237.7,401.2c-6.7,0-12.1-5.4-12.1-12.1 c0-6.7,5.4-12.1,12.1-12.1c2,0,4,0.5,5.7,1.4c1.2,0.7,2.7,0.6,3.9-0.2s1.7-2.2,1.5-3.6c-0.1-0.7-0.2-1.4-0.2-2.1 c0-8.2,6.7-15,15-15c3.7,0,7.2,1.3,9.9,3.7c0,0,0,0,0,0c3.2,2.8,5.1,6.9,5.1,11.2c0,3.6-1.3,7.2-3.7,9.9c-1.4,1.5-1.2,3.9,0.3,5.2 c0.7,0.6,1.6,0.9,2.5,0.9c1,0,2-0.4,2.8-1.3c3.6-4.1,5.6-9.4,5.6-14.8c0-5.9-2.3-11.4-6.4-15.6c0.3-12.5,10.5-22.5,23.1-22.5 c9,0,17.2,5.3,20.9,13.3c-1.5,3-2.3,6.3-2.3,9.8c0,7.4,3.7,14.2,9.9,18.2c0.6,0.4,1.3,0.6,2,0.6c1.2,0,2.4-0.6,3.1-1.7 c1.1-1.7,0.6-4-1.1-5.1c-4.1-2.6-6.5-7.1-6.5-11.9c0-2.7,0.8-5.3,2.2-7.5c0,0,0,0,0,0c2.6-4.1,7.1-6.6,12-6.6 c7.8,0,14.2,6.3,14.2,14.1c0,1.6-0.3,3.2-0.8,4.7c-0.5,1.4-0.1,3,1,4c1.1,1,2.7,1.2,4.1,0.6c1.3-0.6,2.7-0.9,4.2-0.9 c5.4,0,9.8,4.4,9.8,9.8c0,0.3,0,0.7,0,1c-0.2,1.5,0.6,2.9,1.9,3.7c1.3,0.7,3,0.5,4.1-0.4c2.2-1.8,4.9-2.8,7.7-2.8 c6.7,0,12.2,5.4,12.2,12.1c0,6.7-5.4,12.1-12.2,12.1H237.7L237.7,401.2z M426.6,443.9c-3.4,0-6.2-2.8-6.2-6.2 c0-3.4,2.8-6.2,6.2-6.2c3.4,0,6.2,2.8,6.2,6.2C432.8,441.1,430.1,443.9,426.6,443.9z"></path> </g> </g> <path class="st0" d="M988.1,399.6h-81.7v-23.8h51c10.2,0,19.6-5.7,24.2-14.8c4.7-9.1,3.8-20-2.2-28.3c-6-8.3-16.1-12.5-26.2-11 c-3.1-14-15.5-24-29.9-24.1c-5.9,0-11.7,1.7-16.7,5c-7.4-18.1-26.5-28.4-45.7-24.6c-19.2,3.8-33,20.6-32.9,40.1 c0,1.4,0.1,2.9,0.2,4.3c-10.2-2.7-21.1,0.7-27.9,8.8c-6.8,8.1-8.3,19.4-3.8,29c4.5,9.6,14.1,15.7,24.7,15.7h40.8v23.8h-71.5 c-1.9,0-3.4,1.5-3.4,3.4v61.2c0,1.9,1.5,3.4,3.4,3.4h197.4c1.9,0,3.4-1.5,3.4-3.4V403C991.5,401.1,990,399.6,988.1,399.6z M899.7,399.6h-13.6v-23.8h13.6V399.6z M821.4,369c-8.5,0-16.2-5.3-19.2-13.3c-3-8-0.6-17,5.8-22.6c6.5-5.6,15.7-6.5,23.2-2.4 c1.2,0.7,2.7,0.5,3.7-0.3c1.1-0.8,1.5-2.2,1.2-3.6c-3.3-11.7,0-24.3,8.6-33c8.6-8.7,21.1-12.1,32.9-9c11.8,3.1,21,12.3,24.1,24.1 c0.3,1.1,1.2,2,2.3,2.4s2.4,0,3.2-0.8c6.7-6.1,16.3-8,24.7-4.7c8.5,3.3,14.3,11.1,15.1,20.1c0.1,1,0.6,1.9,1.5,2.5 c0.9,0.6,1.9,0.7,2.9,0.4c7.7-2.3,16,0,21.3,6.1c5.3,6,6.6,14.6,3.3,21.9c-3.3,7.3-10.6,12-18.6,12h-51v-10.8 c4.7-1.7,7.5-6.4,6.7-11.3c-0.8-4.9-5.1-8.5-10.1-8.5s-9.2,3.6-10.1,8.5c-0.8,4.9,2,9.7,6.7,11.3V369h-13.6v-34.7 c4.7-1.7,7.5-6.4,6.7-11.3c-0.8-4.9-5.1-8.5-10.1-8.5c-5,0-9.2,3.6-10.1,8.5c-0.8,4.9,2,9.7,6.7,11.3V369H869v-10.2 c0-0.9-0.4-1.8-1-2.4l-9.4-9.4c0.8-4.2-1.2-8.5-4.9-10.6c-3.7-2.2-8.4-1.8-11.7,1c-3.3,2.8-4.5,7.3-3,11.3c1.5,4,5.3,6.7,9.6,6.7 c2.4,0,4.6-0.8,6.4-2.4l7.2,7.2v8.8H821.4z M903.1,352c-1.9,0-3.4-1.5-3.4-3.4c0-1.9,1.5-3.4,3.4-3.4s3.4,1.5,3.4,3.4 C906.5,350.4,904.9,352,903.1,352z M882.7,328.1c-1.9,0-3.4-1.5-3.4-3.4c0-1.9,1.5-3.4,3.4-3.4c1.9,0,3.4,1.5,3.4,3.4 C886.1,326.6,884.5,328.1,882.7,328.1z M848.6,348.5c-1.9,0-3.4-1.5-3.4-3.4c0-1.9,1.5-3.4,3.4-3.4s3.4,1.5,3.4,3.4 C852,347,850.5,348.5,848.6,348.5z M869,375.8h10.2v23.8H869V375.8z M984.7,460.8H794.2v-54.4h68.1v23.8h-10.8 c-1.4-4.1-5.3-6.8-9.6-6.8s-8.2,2.7-9.6,6.8h-21c-1.9,0-3.4,1.5-3.4,3.4s1.5,3.4,3.4,3.4h21c1.4,4.1,5.3,6.8,9.6,6.8 s8.2-2.7,9.6-6.8h14.2c1.9,0,3.4-1.5,3.4-3.4v-27.2h10.2v37.4c0,1.9,1.5,3.4,3.4,3.4h65.3c1.7,4.7,6.4,7.5,11.3,6.7 c4.9-0.8,8.5-5.1,8.5-10.1c0-5-3.6-9.2-8.5-10.1c-4.9-0.8-9.7,2-11.3,6.7h-61.9v-34h13.6v17c0,1.9,1.5,3.4,3.4,3.4h24.4 c1.4,4.1,5.3,6.8,9.6,6.8c4.3,0,8.2-2.7,9.6-6.8h10.8c1.9,0,3.4-1.5,3.4-3.4c0-1.9-1.5-3.4-3.4-3.4h-10.8c-1.4-4.1-5.3-6.8-9.6-6.8 c-4.3,0-8.2,2.7-9.6,6.8h-21v-13.6h78.3V460.8z M845.2,433.6c0,1.9-1.5,3.4-3.4,3.4c-1.9,0-3.4-1.5-3.4-3.4s1.5-3.4,3.4-3.4 C843.7,430.2,845.2,431.7,845.2,433.6z M954.1,443.8c0-1.9,1.5-3.4,3.4-3.4s3.4,1.5,3.4,3.4c0,1.9-1.5,3.4-3.4,3.4 S954.1,445.7,954.1,443.8z M933.7,423.4c0-1.9,1.5-3.4,3.4-3.4c1.9,0,3.4,1.5,3.4,3.4c0,1.9-1.5,3.4-3.4,3.4 C935.2,426.8,933.7,425.3,933.7,423.4z"></path> <path class="st0" d="M1103.6,281.2h-29.9c-2.1,0-3.7,1.7-3.7,3.7s1.7,3.7,3.7,3.7h29.9c2.1,0,3.7-1.7,3.7-3.7 S1105.6,281.2,1103.6,281.2z"></path> <path class="st0" d="M1103.6,266.3h-29.9c-2.1,0-3.7,1.7-3.7,3.7s1.7,3.7,3.7,3.7h29.9c2.1,0,3.7-1.7,3.7-3.7 S1105.6,266.3,1103.6,266.3z"></path> <path class="st0" d="M1021.4,117h7.5v7.5h-7.5V117z"></path> <path class="st0" d="M1021.4,131.9h7.5v7.5h-7.5V131.9z"></path> <path class="st0" d="M1013.9,124.4h7.5v7.5h-7.5V124.4z"></path> <path class="st0" d="M1028.9,124.4h7.5v7.5h-7.5V124.4z"></path> <path class="st0" d="M984.1,83.3h7.5v7.5h-7.5V83.3z"></path> <path class="st0" d="M984.1,98.3h7.5v7.5h-7.5V98.3z"></path> <path class="st0" d="M976.6,90.8h7.5v7.5h-7.5V90.8z"></path> <path class="st0" d="M991.5,90.8h7.5v7.5h-7.5V90.8z"></path> <path class="st0" d="M1144.6,83.3h7.5v7.5h-7.5V83.3z"></path> <path class="st0" d="M1144.6,98.3h7.5v7.5h-7.5V98.3z"></path> <path class="st0" d="M1152.1,90.8h7.5v7.5h-7.5V90.8z"></path> <path class="st0" d="M1137.2,90.8h7.5v7.5h-7.5V90.8z"></path> <path class="st0" d="M1185.7,124.4h7.5v7.5h-7.5V124.4z"></path> <path class="st0" d="M1185.7,139.4h7.5v7.5h-7.5V139.4z"></path> <path class="st0" d="M1193.2,131.9h7.5v7.5h-7.5V131.9z"></path> <path class="st0" d="M1178.2,131.9h7.5v7.5h-7.5V131.9z"></path> <path class="st0" d="M991.5,187.9v7.5c0,25.4,24.9,48.5,52.3,48.5h26.1v11.2c0,2.1,1.7,3.7,3.7,3.7h29.9c2.1,0,3.7-1.7,3.7-3.7 v-11.2h26.1c26,0,52.3-16.7,52.3-48.5c0-20.2-20.3-40.6-41-41.1c-5.1-0.2-10.2,0.5-15,2.1v-88c0-2.1-1.7-3.7-3.7-3.7h-56 c-0.4,0-0.8,0.1-1.2,0.2c-0.1,0-0.2,0.1-0.3,0.1c-0.4,0.2-0.8,0.4-1.1,0.7l-18.7,18.7c-0.3,0.3-0.5,0.7-0.7,1.1 c0,0.1-0.1,0.2-0.1,0.3c-0.1,0.4-0.2,0.8-0.2,1.2v61.7c-3.6-1.3-7.4-1.9-11.2-2C1013.3,146.8,991.5,166.8,991.5,187.9z M1099.8,251.4h-22.4v-26.1c0-2.1-1.7-3.7-3.7-3.7h-0.2l15.2-13.6l15.2,13.6h-0.2c-2.1,0-3.7,1.7-3.7,3.7V251.4z M1122.2,143.8 c-7.4-11.5-19.9-18.7-33.6-19.4c-12.9,0.2-25.2,6-33.6,15.8V91.5l18.1,3c0.2,0,0.4,0.1,0.6,0.1c1.1,0,2.1-0.5,2.8-1.3 c0.7-0.8,1-1.9,0.8-3l-3-18.1h47.9V143.8z M1067.5,76.2l1.7,10.1l-10.1-1.7L1067.5,76.2z M1036.3,154.3c4.7,0.1,9.2,1.3,13.4,3.4h0 c0.5,0.2,0.9,0.3,1.4,0.3c0.5,0,1-0.2,1.6-0.3c0.4-0.3,0.8-0.6,1.2-0.9c0.1-0.1,0.2-0.3,0.3-0.5c0.2-0.3,0.4-0.6,0.5-1 c3.9-12.9,19-23.5,33.8-23.5c16.7,0,31.1,16.1,33.7,30.5c0.1,0.4,0.3,0.8,0.5,1.2c0.1,0.2,0.2,0.3,0.3,0.5c0.3,0.3,0.7,0.6,1,0.9 c0,0,1.5,0.4,1.7,0.4h0.1c0.5,0,0.9-0.1,1.4-0.3h0.1c5.4-2.5,11.2-3.7,17.1-3.4c16.7,0.4,33.7,17.4,33.7,33.6 c0,28.2-23.2,41.1-44.8,41.1h-26.1V229h6.2c1.5,0,2.9-1,3.5-2.4c0.6-1.4,0.2-3.1-1-4.1l-24.9-22.4c-1.4-1.3-3.6-1.3-5,0l-24.9,22.4 c-1.1,1-1.5,2.7-1,4.1c0.6,1.4,1.9,2.4,3.5,2.4h6.2v7.5h-26.1c-23,0-44.8-20-44.8-41.1v-7.5C999,170.9,1017.5,154.3,1036.3,154.3z"></path> <g> <path class="st0" d="M848.7,205v-44.7c0-1.5-1.2-2.8-2.8-2.8h-18.6c-1.5,0-2.8,1.2-2.8,2.8s1.2,2.8,2.8,2.8h15.8v42 c-5.3,1.3-9.3,6.1-9.3,11.8c0,6.7,5.4,12.1,12.1,12.1c6.7,0,12.1-5.4,12.1-12.1C858,211,854,206.2,848.7,205z M845.9,223.2 c-3.6,0-6.5-2.9-6.5-6.5s2.9-6.5,6.5-6.5c3.6,0,6.5,2.9,6.5,6.5S849.5,223.2,845.9,223.2z"></path> <path class="st0" d="M878.4,205v-44.7c0-1.5-1.2-2.8-2.8-2.8H857c-1.5,0-2.8,1.2-2.8,2.8s1.2,2.8,2.8,2.8h15.8v42 c-5.3,1.3-9.3,6.1-9.3,11.8c0,6.7,5.4,12.1,12.1,12.1c6.7,0,12.1-5.4,12.1-12.1C887.7,211,883.8,206.2,878.4,205z M875.6,223.2 c-3.6,0-6.5-2.9-6.5-6.5s2.9-6.5,6.5-6.5c3.6,0,6.5,2.9,6.5,6.5S879.2,223.2,875.6,223.2z"></path> <path class="st0" d="M925.9,186c-5.7,0-10.5,4-11.8,9.3h-5.9v-35.1c0-1.5-1.2-2.8-2.8-2.8h-18.6c-1.5,0-2.8,1.2-2.8,2.8 s1.2,2.8,2.8,2.8h15.8v35.1c0,1.5,1.2,2.8,2.8,2.8h8.7c1.3,5.3,6.1,9.3,11.8,9.3c6.7,0,12.1-5.4,12.1-12.1 C938,191.4,932.6,186,925.9,186z M925.9,204.6c-3.6,0-6.5-2.9-6.5-6.5s2.9-6.5,6.5-6.5c3.6,0,6.5,2.9,6.5,6.5 S929.5,204.6,925.9,204.6z"></path> <path class="st0" d="M941.6,114c-3.8-4.7-8.9-8.1-14.6-9.9c-0.6-13.2-6.1-25.5-15.6-34.9c-10-9.9-23.2-15.3-37.2-15.3 c-18.4,0-35.5,9.6-45.1,25.2c-2.3-0.7-4.8-1.1-7.2-1.1c-11.4,0-21.2,8-23.6,19c-14.6,3.8-25.1,17.1-25.1,32.4 c0,18.5,15,33.5,33.5,33.5h6.5v32.3h-5.9c-1.3-5.3-6.1-9.3-11.8-9.3c-6.7,0-12.1,5.4-12.1,12.1c0,6.7,5.4,12.1,12.1,12.1 c5.7,0,10.5-4,11.8-9.3h8.7c1.5,0,2.8-1.2,2.8-2.8v-37.9c0-1.5-1.2-2.8-2.8-2.8h-9.3c-15.4,0-27.9-12.5-27.9-27.9 c0-13.3,9.5-24.8,22.5-27.4c1.2-0.2,2.1-1.2,2.2-2.4c1.2-9.2,9.1-16.1,18.4-16.1c2.6,0,5,0.5,7.4,1.5c1.3,0.6,2.9,0,3.6-1.2 c8.3-15.1,24.2-24.4,41.4-24.4c25.8,0,47,21,47.3,46.8c0,1.3,0.9,2.4,2.2,2.7c11.2,2.6,19,12.4,19,23.9c0,13.5-11,24.5-24.5,24.5 h-1.5c-1.5,0-2.8,1.2-2.8,2.8s1.2,2.8,2.8,2.8h1.5c16.6,0,30.1-13.5,30.1-30.1C948.2,126,945.9,119.3,941.6,114z M795.6,204.6 c-3.6,0-6.5-2.9-6.5-6.5s2.9-6.5,6.5-6.5c3.6,0,6.5,2.9,6.5,6.5S799.2,204.6,795.6,204.6z"></path> <path class="st0" d="M909.4,109.2L909.4,109.2c1.6,0,2.8-1.3,2.8-2.8c0-4.6-0.9-9.1-2.6-13.4c-0.6-1.4-2.2-2.1-3.6-1.6 c-1.4,0.6-2.1,2.2-1.6,3.6c1.4,3.6,2.2,7.5,2.2,11.4C906.6,108,907.9,109.2,909.4,109.2L909.4,109.2z"></path> <path class="st0" d="M899.2,86.2c0.6,0.7,1.3,1,2.2,1c0.6,0,1.3-0.2,1.8-0.6c1.2-1,1.4-2.7,0.4-3.9c-7.3-8.8-17.9-13.8-29.3-13.8 c-1.5,0-2.8,1.2-2.8,2.8s1.2,2.8,2.8,2.8C883.9,74.4,893,78.7,899.2,86.2L899.2,86.2z"></path> </g> <path class="st0" d="M1208.7,466.3H1170v-3c0-1.6-1.3-3-3-3h-29.8v-26.9c0-1.6-1.3-3-3-3h-3v-32.8h50.7c9,0,17.2-5,21.2-13 c4.1-8,3.4-17.6-1.9-24.8c-5.2-7.3-14.1-11-23-9.6c-2.7-12.3-13.6-21.1-26.2-21.2c-5.2,0-10.3,1.5-14.6,4.4 c-6.5-15.8-23.2-24.9-40-21.6c-16.8,3.3-28.9,18-28.9,35.1c0,1.3,0.1,2.5,0.2,3.8c-9-2.4-18.5,0.6-24.5,7.7c-6,7.1-7.3,17-3.3,25.4 c3.9,8.4,12.4,13.8,21.6,13.8h50.7v32.8h-3c-1.6,0-3,1.3-3,3v26.9h-29.8c-1.6,0-3,1.3-3,3v3h-38.8c-1.6,0-3,1.3-3,3v11.9 c0,1.6,1.3,3,3,3h38.8v3c0,1.6,1.3,3,3,3h89.5c1.6,0,3-1.3,3-3v-3h38.8c1.6,0,3-1.3,3-3v-11.9 C1211.7,467.6,1210.4,466.3,1208.7,466.3z M1044.7,373.8c0-6.3,3.4-12.2,8.8-15.4c5.5-3.2,12.2-3.3,17.8-0.2c1,0.6,2.3,0.5,3.3-0.3 c0.9-0.7,1.4-2,1-3.1c-4.3-15.9,5-32.3,20.9-36.6c15.9-4.3,32.3,5,36.6,20.9c0.3,1,1,1.8,2,2.1c1,0.3,2.1,0,2.8-0.7 c5.9-5.4,14.3-7,21.7-4.1c7.4,2.9,12.5,9.7,13.2,17.6c0.1,0.9,0.6,1.7,1.3,2.2c0.7,0.5,1.7,0.6,2.5,0.4c6.7-2,14,0,18.7,5.3 c4.6,5.3,5.8,12.8,2.9,19.2c-2.9,6.4-9.3,10.5-16.3,10.5h-119.3C1052.7,391.7,1044.7,383.7,1044.7,373.8z M1119.2,397.7h6v32.8h-6 V397.7z M1038.7,478.2v-6h35.8v6H1038.7z M1164,484.2h-83.5v-17.9h29.8c1.6,0,3-1.3,3-3v-26.9h17.9v26.9c0,1.6,1.3,3,3,3h29.8V484.2 z M1205.8,478.2H1170v-6h35.8V478.2z"></path> <path class="st0" d="M1062.6,361.9c-6.6,0-11.9,6.7-11.9,14.9c0,1.6,1.3,3,3,3c1.6,0,3-1.3,3-3c0-4.9,2.7-9,6-9c1.6,0,3-1.3,3-3 S1064.2,361.9,1062.6,361.9z"></path> <g> <path class="st0" d="M302.2,78.1C301,56.6,283.3,39.5,262,39.5c-12.9,0-25.5,6.3-33.2,16.7c-0.2-0.1-0.4-0.2-0.5-0.2 c-0.5-0.2-1-0.4-1.4-0.6c-0.3-0.1-0.5-0.2-0.8-0.3c-0.5-0.2-1-0.3-1.5-0.5c-0.3-0.1-0.6-0.2-0.8-0.2c-0.5-0.1-1.1-0.2-1.6-0.3 c-0.2,0-0.5-0.1-0.7-0.1c-0.8-0.1-1.6-0.1-2.4-0.1c-11.8,0-21.4,9.6-21.4,21.4c0,0.3,0,0.6,0,0.9c-9.9,5.4-16.7,16.7-16.7,28 c0,16.9,13.7,30.6,30.6,30.6h12.3c1.3,0,2.4-1.1,2.4-2.4c0-1.3-1.1-2.4-2.4-2.4h-12.3c-14.2,0-25.8-11.6-25.8-25.8 c0-9.9,6.4-20.2,15.3-24.4l1.4-0.6v-1.5c0-0.3,0-0.6,0-0.9l0-0.4l0-0.4c0-0.2,0-0.4,0-0.6c0-9.2,7.5-16.7,16.7-16.7 c0.7,0,1.5,0.1,2.2,0.2c0.2,0,0.4,0.1,0.6,0.1c0.6,0.1,1.3,0.2,1.9,0.4c0.1,0,0.2,0,0.2,0.1c0.7,0.2,1.3,0.5,2,0.8 c0.2,0.1,0.3,0.2,0.5,0.2c0.6,0.3,1.1,0.6,1.7,1c4.6,3,7.6,8.1,7.6,14c0,1.3,1.1,2.4,2.4,2.4s2.4-1.1,2.4-2.4 c0-6.6-3-12.4-7.6-16.4c6.8-8.9,18.1-14.6,29.3-14.6c18.4,0,33.8,14.6,35.4,33.1c-2.4-0.2-6.1-0.3-9.7,0.3c-1.3,0.2-2.2,1.4-2,2.7 c0.2,1.2,1.2,2,2.4,2c0.1,0,0.2,0,0.4,0c5.3-0.8,10.8-0.1,11.2,0c11.1,2.1,19.4,12.3,19.4,23.8c0,13.2-10.7,23.9-23.9,23.9h-9.5 c-1.3,0-2.4,1.1-2.4,2.4c0,1.3,1.1,2.4,2.4,2.4h9.5c15.8,0,28.6-12.8,28.6-28.6C323.7,93,314.6,81.3,302.2,78.1z"></path> <path class="st0" d="M256.4,102.1c-0.2-0.2-0.5-0.4-0.8-0.5c-0.6-0.2-1.2-0.2-1.8,0c-0.3,0.1-0.6,0.3-0.8,0.5l-19,19 c-0.9,0.9-0.9,2.4,0,3.4c0.5,0.5,1.1,0.7,1.7,0.7c0.6,0,1.2-0.2,1.7-0.7l15-15v49c0,1.3,1.1,2.4,2.4,2.4c1.3,0,2.4-1.1,2.4-2.4v-49 l15,15c0.5,0.5,1.1,0.7,1.7,0.7s1.2-0.2,1.7-0.7c0.9-0.9,0.9-2.4,0-3.4L256.4,102.1z"></path> </g> <g> <path class="st0" d="M666.1,415.3c-1.1-19-16.7-34.1-35.6-34.1c-11.4,0-22.5,5.6-29.4,14.8c-0.2-0.1-0.3-0.1-0.5-0.2 c-0.4-0.2-0.8-0.4-1.3-0.6c-0.2-0.1-0.5-0.2-0.7-0.3c-0.4-0.1-0.9-0.3-1.3-0.4c-0.2-0.1-0.5-0.1-0.7-0.2c-0.5-0.1-1-0.2-1.4-0.3 c-0.2,0-0.4-0.1-0.6-0.1c-0.7-0.1-1.4-0.1-2.1-0.1c-10.5,0-19,8.5-19,19c0,0.3,0,0.5,0,0.8c-8.8,4.8-14.8,14.8-14.8,24.8 c0,14.9,12.1,27.1,27.1,27.1h10.9c1.2,0,2.1-0.9,2.1-2.1c0-1.2-0.9-2.1-2.1-2.1h-10.9c-12.6,0-22.8-10.2-22.8-22.8 c0-8.7,5.7-17.8,13.6-21.6l1.2-0.6v-1.3c0-0.3,0-0.5,0-0.8l0-0.4l0-0.4c0-0.2,0-0.4,0-0.5c0-8.1,6.6-14.7,14.7-14.7 c0.7,0,1.3,0.1,1.9,0.1c0.2,0,0.3,0,0.5,0.1c0.6,0.1,1.1,0.2,1.7,0.4c0.1,0,0.1,0,0.2,0.1c0.6,0.2,1.2,0.4,1.8,0.7 c0.1,0.1,0.3,0.1,0.4,0.2c0.5,0.3,1,0.5,1.5,0.8c4.1,2.6,6.8,7.2,6.8,12.4c0,1.2,0.9,2.1,2.1,2.1s2.1-0.9,2.1-2.1 c0-5.8-2.6-11-6.7-14.5c6-7.9,16-12.9,25.9-12.9c16.3,0,29.9,12.9,31.3,29.3c-2.2-0.2-5.4-0.2-8.6,0.3c-1.2,0.2-1.9,1.2-1.8,2.4 c0.2,1,1.1,1.8,2.1,1.8c0.1,0,0.2,0,0.3,0c4.7-0.7,9.6,0,9.9,0c9.8,1.9,17.2,10.9,17.2,21c0,11.6-9.5,21.1-21.1,21.1h-8.4 c-1.2,0-2.1,0.9-2.1,2.1c0,1.2,0.9,2.1,2.1,2.1h8.4c14,0,25.3-11.4,25.3-25.3C685.1,428.5,677,418.2,666.1,415.3z"></path> <path class="st0" d="M639.4,468.2l-13.3,13.3v-43.4c0-1.2-0.9-2.1-2.1-2.1s-2.1,0.9-2.1,2.1v43.4l-13.3-13.3c-0.8-0.8-2.2-0.8-3,0 c-0.8,0.8-0.8,2.2,0,3l16.8,16.8c0.2,0.2,0.4,0.3,0.7,0.5c0.3,0.1,0.5,0.2,0.8,0.2s0.5-0.1,0.8-0.2c0.3-0.1,0.5-0.3,0.7-0.5 l16.8-16.8c0.8-0.8,0.8-2.2,0-3C641.5,467.3,640.2,467.3,639.4,468.2z"></path> </g> <g> <path class="st0" d="M170.7,224.3c-1.5-26.1-23.1-47-49-47c-15.8,0-31,7.7-40.5,20.3c-0.2-0.1-0.4-0.2-0.7-0.3 c-0.6-0.3-1.1-0.5-1.7-0.8c-0.3-0.1-0.7-0.3-1-0.4c-0.6-0.2-1.2-0.4-1.7-0.5c-0.3-0.1-0.7-0.2-1-0.3c-0.6-0.1-1.3-0.3-1.9-0.4 c-0.3,0-0.6-0.1-0.9-0.1c-1-0.1-1.9-0.2-2.9-0.2c-14.4,0-26.1,11.7-26.1,26.1c0,0.4,0,0.7,0,1.1c-12.1,6.6-20.4,20.4-20.4,34.2 c0,20.6,16.7,37.3,37.3,37.3h15c1.6,0,2.9-1.3,2.9-2.9s-1.3-2.9-2.9-2.9H60c-17.4,0-31.5-14.1-31.5-31.5c0-12.1,7.9-24.6,18.7-29.8 l1.6-0.8v-1.8c0-0.4,0-0.7,0-1.1l0-0.5l0-0.6c0-0.2,0-0.5,0-0.7c0-11.2,9.1-20.3,20.3-20.3c0.9,0,1.8,0.1,2.7,0.2 c0.2,0,0.5,0.1,0.7,0.1c0.8,0.1,1.5,0.3,2.3,0.5c0.1,0,0.2,0,0.3,0.1c0.8,0.3,1.6,0.6,2.4,0.9c0.2,0.1,0.4,0.2,0.6,0.3 c0.7,0.3,1.4,0.7,2,1.2c5.6,3.6,9.3,9.9,9.3,17.1c0,1.6,1.3,2.9,2.9,2.9s2.9-1.3,2.9-2.9c0-8-3.6-15.1-9.3-19.9 c8.3-10.9,22-17.8,35.7-17.8c22.5,0,41.2,17.8,43.1,40.3c-3-0.2-7.4-0.3-11.9,0.4c-1.6,0.2-2.7,1.7-2.4,3.3 c0.2,1.4,1.5,2.5,2.9,2.5c0.1,0,0.3,0,0.4,0c6.5-1,13.2-0.1,13.6,0c13.5,2.6,23.7,15,23.7,29c0,16-13.1,29.1-29.1,29.1h-11.5 c-1.6,0-2.9,1.3-2.9,2.9s1.3,2.9,2.9,2.9H162c19.3,0,34.9-15.7,34.9-34.9C196.9,242.5,185.8,228.2,170.7,224.3z"></path> <path class="st0" d="M137.3,310.9c4.6-5.5,7.4-12.7,7.4-20.4c0-17.6-14.3-31.9-31.9-31.9s-31.9,14.3-31.9,31.9s14.3,31.9,31.9,31.9 c7.8,0,14.9-2.8,20.4-7.4l26.9,26.9c0.6,0.6,1.3,0.9,2.1,0.9s1.5-0.3,2.1-0.9c1.1-1.1,1.1-3,0-4.1L137.3,310.9z M112.7,316.6 c-14.4,0-26.1-11.7-26.1-26.1s11.7-26.1,26.1-26.1s26.1,11.7,26.1,26.1S127.1,316.6,112.7,316.6z"></path> </g> </svg> 