<?xml version="1.0" encoding="UTF-8"?> <!-- Generator: Adobe Illustrator 23.0.1, SVG Export Plug-In . SVG Version: 6.00 Build 0) --> <svg xmlns="http://www.w3.org/2000/svg" xmlns:xlink="http://www.w3.org/1999/xlink" id="Camada_1" x="0px" y="0px" viewBox="0 0 344 232" style="enable-background:new 0 0 344 232;" xml:space="preserve"> <style type="text/css"> .st0{fill:#F59B1D;} .st1{fill:#ED6F29;} .st2{fill:#008C3F;} .st3{fill:#E62A26;} .st4{fill:#005B32;} .st5{fill:#9F221F;} .st6{fill:#E8402C;} .st7{fill:#D42025;} .st8{fill:#C53626;} </style> <g> <g> <path class="st0" d="M220.4,60.63c11.15-0.06,22.3-0.02,33.45-0.25c3.28-0.07,3.08,2.31,3.57,4.13 c6.73,24.69,14.62,49.01,23.59,72.97c0.52,1.38,1.11,2.74,2.12,5.25c2.2-6.43,4.16-11.79,5.88-17.23 c6.37-20.08,12.22-40.31,17.39-60.73c0.85-3.36,2.14-4.54,5.71-4.43c9.34,0.29,18.69,0.24,28.04,0.03 c3.47-0.08,4.31,0.49,3.19,4.12c-8.94,28.9-18.5,57.57-29.73,85.67c-0.33,0.83-0.56,1.7-0.84,2.55c-0.12,0.19-0.25,0.38-0.37,0.58 c-13.39,4.69-17.8,14.18-13.02,28.57c0.19,0.58,0.15,1.18-0.08,1.75c-3.41,7.38-7.04,14.64-11.11,21.7 c-11.68,20.22-29.74,26.49-51.84,24.13c-5.4-0.58-10.67-1.83-15.87-3.43c-2.23-0.69-3.14-1.68-2.51-4.23 c1.8-7.31,3.52-14.64,4.87-22.04c0.56-3.07,1.72-3.13,4.2-2.37c6.83,2.08,13.78,3.24,20.93,1.77 c7.39-1.52,16.21-10.56,17.52-17.89c0.18-1.02-0.21-1.75-0.61-2.54c-6.23-12.35-11.98-24.92-18.33-37.6 c0,1.65,0.03,3.31-0.01,4.96c-0.29,11.87,0.61,23.76-0.47,35.62c-1.36-0.8-1.6-2.2-1.59-3.53c0.09-13.37-0.88-26.76,0.54-40.11 c0.21-16.31,1.91-32.67-1.56-48.85c-2.48-11.59-9.04-20.07-19.58-25.51C222.52,62.99,220.59,62.75,220.4,60.63z"></path> <path class="st1" d="M155.18,179.87c0.3,0.3,0.61,0.6,0.91,0.9c-2.7,0.1-1.9,2.46-2.05,3.75c-0.36,3.06-1.71,3.89-4.69,3.61 c-6.44-0.6-12.87-1.07-19.15-2.74c-16.73-4.45-25.29-14.86-26.53-32.15c-0.82-11.41-0.34-22.84-0.54-34.27 c-0.03-1.48,0.93-3.39-1.18-4.37c0.58-0.53,1.16-1.06,1.73-1.59c4.89-9.37,9.37-18.84,10.92-29.5c2.82-19.47,1.36-38.17-9-55.45 c-0.86-1.44-1.11-3.11-1.9-4.56c-0.27-0.3-0.55-0.59-0.82-0.89c0.1-4.36,0.27-8.71,0.25-13.07c-0.01-2.11,0.47-3.16,2.88-3.52 c10.11-1.5,20.19-3.21,30.26-4.95c2.15-0.37,2.7,0.43,2.57,2.34c-0.07,1.05-0.01,2.11-0.01,3.16c0,41.7-0.01,83.4,0.04,125.1 c0,1.86-0.76,3.93,0.86,5.58c-1.71,5.44-2.7,10.91-0.82,16.53c1.21,0.93,1.21,2.38,1.47,3.67c1.71,8.46,5.82,15.4,12.87,20.49 C154.02,178.5,154.53,179.25,155.18,179.87z"></path> <path class="st2" d="M312.78,152.72c5.29,0.2,10.46,0,15.18,3.62c6.04,4.63,9.33,13.85,7.04,21.83 c-2.54,8.86-10.87,13.78-17.38,13.71c-5.16-0.05-10.02-0.48-14.17-3.8c-1.47-1.18-3.33-2.15-3.46-4.42 c-0.73-1.17-0.4-2.32,0.13-3.42c3.91-8.25,7.29-16.72,10.88-25.1c0.36-0.85,0.96-1.51,1.61-2.13L312.78,152.72z"></path> <path class="st3" d="M246.55,137.4c-4.25-8.13-7.38-16.74-10.56-25.3c-5.81-15.64-10.99-31.51-15.85-47.47 c-0.41-1.33-0.63-2.62-0.59-3.98c0.28-0.16,0.57-0.17,0.85-0.01c18.74,7.52,25.58,22.7,26.2,41.51 C247,113.88,246.6,125.65,246.55,137.4z"></path> <path class="st4" d="M312.6,153.02c-2.65,8.92-6.9,17.17-10.54,25.68c-0.71,1.65-1.39,3.31-2.08,4.97 c-0.23-0.02-0.45-0.03-0.68-0.05C291.68,170.11,298.43,154.58,312.6,153.02z"></path> <path class="st5" d="M103.71,23.52c8.18,10.24,11.32,22.15,12.83,34.98c1.65,13.97-0.27,27.3-4.77,40.35 c-1.77,5.14-3.88,10.31-8.08,14.16C103.7,83.19,103.71,53.35,103.71,23.52z"></path> <path class="st6" d="M245.92,165.13c0.21-9.24-0.77-18.51,0.63-27.73c-0.86-2.86-1.33-5.81-2.56-8.59 c-7.92-17.87-13.66-36.54-19.83-55.05c-1.47-4.4-2.18-9.06-4.61-13.12c-0.6-0.05-1.22-0.01-1.79-0.17 c-21.61-6.18-42.97-3.3-64.32,1.55c-2.71,0.62-3.3,1.66-2.82,4.29c1.33,7.26,2.55,14.54,3.46,21.86c0.37,2.96,1.12,3.26,3.9,2.43 c11.22-3.35,22.76-4.39,34.43-3.77c12.87,0.68,20.56,8.67,19.93,20.3c-0.11,1.99-0.57,2.62-2.6,2.25 c-3.11-0.57-6.25-1.06-9.4-1.27c-14.91-1.01-29.6-0.16-43.17,6.87c-9.11,4.71-15.46,11.87-17.43,22.3 c-3.58,4.44-4.19,11.91-1.35,16.64c2.18-0.97,1.73-2.88,1.55-4.6c-0.18-1.79-0.84-3.53-0.31-5.71c-0.12,5.27,0.54,6.97,3.45,10.08 c2.46,2.63,5.56,3.95,8.96,4.84c5.35,1.41,5.27,1.44,4.43,7.04c-0.69,4.58-2,9.07-1.87,13.75c0.23,0.75,0.8,1.16,1.48,1.47 c4.61,3,9.77,4.57,15.1,5.58c16.29,3.1,32.66,2.35,48.96,0.38c8.73-1.05,17.54-2.11,25.93-5.04 C246.01,176.18,245.79,170.65,245.92,165.13z M212.3,135.59l-0.01,16.27c0,8.41,0,8.5-8.58,8.88c-6.91,0.31-13.86,0.77-20.6-1.47 c-6.34-2.11-9-5.62-9.33-12.3c-0.31-6.09,2.53-10.85,8.47-13c9.19-3.32,18.67-2.47,28.13-1.21 C212.36,133.04,212.31,134.18,212.3,135.59z"></path> <path class="st7" d="M155.18,179.87c-10.85-5.3-15.11-14.72-16.25-26.07c0-3.6,0-7.2,0-10.8c1.41,9.85,8.08,13.78,16.84,15.16 c2.58,0.41,3.14,0.86,2.51,3.62C156.92,167.74,156.18,173.83,155.18,179.87z"></path> </g> <path class="st8" d="M105.12,30.78c0-2.1-0.01-4.21-0.5-6.27c-0.3-0.89-0.79-1.58-1.73-1.88C93.4,12.7,82.2,5.77,68.51,3.34 C46.05-0.64,24.13,3.06,2.3,8.1c-2.55,0.59-2.27,2.37-2.26,4.17c0,8.59,0,17.19,0,25.78c0,43.73,0.05,87.45-0.09,131.18 c-0.01,3.75,0.96,4.88,4.72,4.73c7.38-0.3,14.77-0.09,22.16-0.09c8.83,0,8.83,0,8.83-9.02c0-12.48,0-24.95,0-38.07 c10.38,4.58,20.75,6.04,31.39,5.22c13.95-1.08,25.92-6.3,34.9-17.41c1.69-0.12,2.58-1.09,2.84-2.71c0.22-1.79,0.33-3.59,0.33-5.39 C105.13,81.26,105.13,56.02,105.12,30.78z M86.77,73.02C72.52,81.39,58.2,89.63,43.78,97.7c-5.17,2.9-7.47,1.35-7.55-4.7 c-0.11-7.98-0.03-15.97-0.03-23.95c0-8.2-0.12-16.4,0.04-24.6c0.11-5.55,2.46-6.97,7.38-4.21c14.41,8.09,28.74,16.33,43.02,24.66 C91.03,67.45,91.11,70.47,86.77,73.02z"></path> </g> </svg> 