<?xml version="1.0" encoding="UTF-8"?> <!-- Generator: Adobe Illustrator 23.0.1, SVG Export Plug-In . SVG Version: 6.00 Build 0) --> <svg xmlns="http://www.w3.org/2000/svg" xmlns:xlink="http://www.w3.org/1999/xlink" id="Camada_1" x="0px" y="0px" viewBox="0 0 172 116" style="enable-background:new 0 0 172 116;" xml:space="preserve"> <style type="text/css"> .st0{fill:#F59B1D;} .st1{fill:#ED6F29;} .st2{fill:#008C3F;} .st3{fill:#E62A26;} .st4{fill:#005B32;} .st5{fill:#9F221F;} .st6{fill:#E8402C;} .st7{fill:#D42025;} .st8{fill:#C53626;} </style> <g> <g> <path class="st0" d="M110.33,29.85c5.58-0.03,11.16-0.01,16.74-0.12c1.64-0.03,1.54,1.16,1.79,2.07 c3.37,12.36,7.32,24.53,11.81,36.52c0.26,0.69,0.55,1.37,1.06,2.63c1.1-3.22,2.08-5.9,2.94-8.62c3.19-10.05,6.12-20.17,8.7-30.39 c0.42-1.68,1.07-2.27,2.86-2.22c4.67,0.15,9.36,0.12,14.03,0.01c1.74-0.04,2.16,0.25,1.6,2.06c-4.48,14.46-9.26,28.81-14.88,42.88 c-0.17,0.42-0.28,0.85-0.42,1.28c-0.06,0.1-0.12,0.19-0.19,0.29c-6.7,2.35-8.91,7.1-6.52,14.3c0.1,0.29,0.08,0.59-0.04,0.88 c-1.71,3.7-3.52,7.33-5.56,10.86c-5.84,10.12-14.88,13.26-25.95,12.08c-2.7-0.29-5.34-0.91-7.94-1.72 c-1.12-0.34-1.57-0.84-1.26-2.11c0.9-3.66,1.76-7.33,2.44-11.03c0.28-1.54,0.86-1.56,2.1-1.18c3.42,1.04,6.89,1.62,10.48,0.88 c3.7-0.76,8.11-5.29,8.77-8.95c0.09-0.51-0.1-0.88-0.3-1.27c-3.12-6.18-5.99-12.47-9.17-18.82c0,0.83,0.02,1.65,0,2.48 c-0.14,5.94,0.31,11.89-0.24,17.83c-0.68-0.4-0.8-1.1-0.8-1.77c0.05-6.69-0.44-13.39,0.27-20.07c0.11-8.16,0.95-16.35-0.78-24.45 c-1.24-5.8-4.53-10.04-9.8-12.77C111.39,31.02,110.43,30.91,110.33,29.85z"></path> <path class="st1" d="M77.69,89.53c0.15,0.15,0.3,0.3,0.46,0.45c-1.35,0.05-0.95,1.23-1.03,1.88c-0.18,1.53-0.85,1.95-2.35,1.81 c-3.22-0.3-6.44-0.54-9.58-1.37c-8.37-2.23-12.66-7.44-13.28-16.09c-0.41-5.71-0.17-11.43-0.27-17.15 c-0.01-0.74,0.46-1.7-0.59-2.19c0.29-0.27,0.58-0.53,0.87-0.79c2.45-4.69,4.69-9.43,5.47-14.76c1.41-9.74,0.68-19.1-4.5-27.75 c-0.43-0.72-0.55-1.56-0.95-2.28c-0.14-0.15-0.27-0.3-0.41-0.44c0.05-2.18,0.14-4.36,0.13-6.54c0-1.06,0.23-1.58,1.44-1.76 c5.06-0.75,10.1-1.61,15.14-2.48c1.08-0.19,1.35,0.22,1.29,1.17c-0.04,0.52-0.01,1.05-0.01,1.58c0,20.87-0.01,41.74,0.02,62.61 c0,0.93-0.38,1.97,0.43,2.79c-0.85,2.72-1.35,5.46-0.41,8.27c0.6,0.47,0.61,1.19,0.74,1.84c0.86,4.23,2.91,7.71,6.44,10.26 C77.11,88.84,77.37,89.21,77.69,89.53z"></path> <path class="st2" d="M156.57,75.94c2.65,0.1,5.24,0,7.6,1.81c3.02,2.32,4.67,6.93,3.52,10.92c-1.27,4.43-5.44,6.9-8.7,6.86 c-2.58-0.03-5.01-0.24-7.09-1.9c-0.74-0.59-1.67-1.08-1.73-2.21c-0.36-0.58-0.2-1.16,0.06-1.71c1.95-4.13,3.65-8.37,5.45-12.56 c0.18-0.42,0.48-0.75,0.81-1.06L156.57,75.94z"></path> <path class="st3" d="M123.42,68.27c-2.13-4.07-3.69-8.38-5.28-12.66c-2.91-7.83-5.5-15.77-7.93-23.76 c-0.2-0.67-0.32-1.31-0.3-1.99c0.14-0.08,0.28-0.08,0.43-0.01c9.38,3.76,12.8,11.36,13.12,20.78 C123.64,56.5,123.44,62.38,123.42,68.27z"></path> <path class="st4" d="M156.48,76.08c-1.33,4.46-3.45,8.6-5.28,12.85c-0.35,0.83-0.69,1.66-1.04,2.49 c-0.11-0.01-0.23-0.02-0.34-0.02C146.01,84.64,149.39,76.86,156.48,76.08z"></path> <path class="st5" d="M51.93,11.27c4.09,5.12,5.67,11.08,6.42,17.51c0.82,6.99-0.13,13.66-2.39,20.2 c-0.89,2.57-1.94,5.16-4.04,7.09C51.92,41.13,51.93,26.2,51.93,11.27z"></path> <path class="st6" d="M123.1,82.14c0.11-4.63-0.39-9.27,0.32-13.88c-0.43-1.43-0.67-2.91-1.28-4.3 c-3.97-8.95-6.83-18.29-9.92-27.55c-0.73-2.2-1.09-4.53-2.31-6.57c-0.3-0.03-0.61,0-0.9-0.08c-10.81-3.09-21.51-1.65-32.19,0.78 c-1.36,0.31-1.65,0.83-1.41,2.14c0.66,3.63,1.28,7.28,1.73,10.94c0.18,1.48,0.56,1.63,1.95,1.21c5.62-1.68,11.39-2.2,17.23-1.89 c6.44,0.34,10.29,4.34,9.97,10.16c-0.05,1-0.29,1.31-1.3,1.12c-1.56-0.28-3.13-0.53-4.7-0.64c-7.46-0.5-14.81-0.08-21.61,3.44 c-4.56,2.36-7.74,5.94-8.72,11.16c-1.79,2.22-2.1,5.96-0.67,8.33c1.09-0.49,0.86-1.44,0.78-2.3c-0.09-0.89-0.42-1.77-0.16-2.86 c-0.06,2.64,0.27,3.49,1.73,5.04c1.23,1.31,2.78,1.98,4.48,2.42c2.68,0.7,2.64,0.72,2.22,3.52c-0.34,2.29-1,4.54-0.94,6.88 c0.12,0.38,0.4,0.58,0.74,0.73c2.31,1.5,4.89,2.29,7.56,2.79c8.15,1.55,16.35,1.17,24.5,0.19c4.37-0.53,8.78-1.06,12.98-2.52 C123.15,87.68,123.04,84.91,123.1,82.14z M106.28,67.36l0,8.14c0,4.21,0,4.26-4.29,4.45c-3.46,0.15-6.94,0.38-10.31-0.74 c-3.18-1.06-4.5-2.81-4.67-6.15c-0.15-3.05,1.27-5.43,4.24-6.51c4.6-1.66,9.34-1.23,14.08-0.6 C106.31,66.08,106.29,66.66,106.28,67.36z"></path> <path class="st7" d="M77.69,89.53c-5.43-2.65-7.56-7.37-8.13-13.05c0-1.8,0-3.6,0-5.41c0.71,4.93,4.04,6.9,8.43,7.59 c1.29,0.2,1.57,0.43,1.26,1.81C78.56,83.45,78.19,86.5,77.69,89.53z"></path> </g> <path class="st8" d="M52.64,14.91c0-1.05-0.01-2.11-0.25-3.14c-0.15-0.44-0.4-0.79-0.87-0.94c-4.75-4.97-10.36-8.44-17.21-9.66 C23.07-0.82,12.1,1.03,1.18,3.55C-0.1,3.85,0.04,4.74,0.04,5.64c0,4.3,0,8.6,0,12.9C0.04,40.43,0.07,62.32,0,84.2 c-0.01,1.88,0.48,2.44,2.36,2.37c3.69-0.15,7.39-0.04,11.09-0.04c4.42,0,4.42,0,4.42-4.51c0-6.24,0-12.49,0-19.05 c5.2,2.29,10.38,3.03,15.71,2.61c6.98-0.54,12.97-3.15,17.47-8.71c0.85-0.06,1.29-0.55,1.42-1.36c0.11-0.9,0.16-1.8,0.16-2.7 C52.64,40.17,52.64,27.54,52.64,14.91z M43.45,36.05c-7.13,4.19-14.3,8.31-21.52,12.35c-2.59,1.45-3.74,0.67-3.78-2.35 c-0.05-4-0.01-7.99-0.01-11.99c0-4.1-0.06-8.21,0.02-12.31c0.05-2.78,1.23-3.49,3.69-2.11c7.21,4.05,14.39,8.17,21.53,12.34 C45.59,33.26,45.63,34.77,43.45,36.05z"></path> </g> </svg> 