<?xml version="1.0" encoding="UTF-8"?> <svg xmlns="http://www.w3.org/2000/svg" xmlns:xlink="http://www.w3.org/1999/xlink" id="Celular" width="625" height="504" viewBox="0 0 625 504"><metadata><?xpacket begin="﻿" id="W5M0MpCehiHzreSzNTczkc9d"?><?xpacket end="w"?></metadata><defs><style> .cls-1 { fill: #111; opacity: 0.45; } .cls-1, .cls-10, .cls-11, .cls-2, .cls-3, .cls-4, .cls-5, .cls-6, .cls-7, .cls-8, .cls-9 { fill-rule: evenodd; } .cls-2 { fill: #004d2e; } .cls-3 { fill: url(#linear-gradient); } .cls-4 { fill: #00883c; } .cls-5 { fill: #002d1b; } .cls-6 { fill: #3d3d3d; opacity: 0.61; } .cls-7 { fill: #721116; } .cls-8 { fill: #9f1319; } .cls-9 { fill: #92191d; } .cls-10 { fill: url(#linear-gradient-2); } .cls-11 { fill: #b6181e; } </style><linearGradient id="linear-gradient" x1="314.203" y1="439.75" x2="314.203" y2="104.25" gradientUnits="userSpaceOnUse"><stop offset="0" stop-color="#7b7b7b"></stop><stop offset="1" stop-color="#cacaca"></stop></linearGradient><linearGradient id="linear-gradient-2" x1="320.352" y1="297.781" x2="451.429" y2="70.75" gradientUnits="userSpaceOnUse"><stop offset="0.395" stop-color="#6c1115"></stop><stop offset="0.605" stop-color="#9f1319"></stop></linearGradient></defs><path id="Shape_2_copy" data-name="Shape 2 copy" class="cls-1" d="M614,401c8.984,16.327-1.989,28.33-16,33-10.669,3.556-213,68-213,68s-40.176,7.631-65-11S-7,235-7,235s-5-4.929-5-12a87.455,87.455,0,0,1,1-13,15.47,15.47,0,0,1,10-9c3.487-1.03,84.1-24.613,221.211-57.028,14.236-4.353,35.325,1.186,53.172,14.435C372.883,243.878,597.665,389.571,614,401Z"></path><path class="cls-2" d="M625,355v17s-4.331,12.444-15,16-213,68-213,68-40.176,7.631-65-11S5,189,5,189s-5-4.929-5-12a87.451,87.451,0,0,1,1-13,15.469,15.469,0,0,1,10-9C18.7,152.725,625,355,625,355Z"></path><path class="cls-3" d="M616,342L249,107s-16.972-6.788-48,1S15,153,15,153s-20.164,8.222-7,21S333,426,333,426s28.129,22.362,66,10,216-68,216-68S636.478,362.478,616,342Z"></path><path id="Rounded_Rectangle_2" data-name="Rounded Rectangle 2" class="cls-4" d="M164.5,125.18l-44.083,10.046a2.608,2.608,0,0,0-1.964,3.123l0.193,0.848a2.609,2.609,0,0,0,3.123,1.963l44.083-10.046a2.609,2.609,0,0,0,1.964-3.123l-0.194-.848A2.607,2.607,0,0,0,164.5,125.18Z"></path><path class="cls-4" d="M520,404l-33,11s-7.517,4.722,0,9c10.745-2.763,35-11,35-11S528.509,406.054,520,404Z"></path><path class="cls-4" d="M527.5,400a2.083,2.083,0,1,0,1.5,2A1.805,1.805,0,0,0,527.5,400Z"></path><path class="cls-5" d="M17,195a7.941,7.941,0,0,1,2-3c1.223-.978,4,0,4,0s13.115,9.029,18,15c2.742,3.351-2,6-2,6Z"></path><path class="cls-4" d="M40,208L20,193s-5.363,1.24-1,5,19,15,19,15S41.766,213.84,40,208Z"></path><path id="Ellipse_5_copy" data-name="Ellipse 5 copy" class="cls-5" d="M475.575,360.363c-14.59-1.824-27.344,3.925-28.487,12.84s9.758,17.622,24.348,19.446,27.344-3.925,28.487-12.84S490.165,362.187,475.575,360.363Z"></path><path class="cls-4" d="M475.575,363.014c-11.734-1.485-21.991,3.2-22.911,10.457s7.848,14.351,19.582,15.837,21.992-3.2,22.911-10.457S487.309,364.5,475.575,363.014Z"></path><path id="Elipse_1" data-name="Elipse 1" class="cls-6" d="M437.9,337.8C334.73,308.452,220.741,263.518,82,215c15.964-12.118,53.7-27.167,93.3-40.464,15.018,8.051,50.058,17.52,66.7,28.464-3.587-25.969-7.655-27.846-18.138-43.7,31.952-9.355,59.355-16.07,70.138-17.3C341.711,181.958,421.322,276.407,437.9,337.8Z"></path><path class="cls-7" d="M490.078,294.484L262,215.516l18.049-100.355Z"></path><path class="cls-8" d="M495,306L422.8,21.387S385.36,35.594,288.257,70.742c-0.293,15.676-.89,45.889-1.641,54.29-4.377-4.514-39.517-34.734-44.3-39.484-74.119,26.621-142.751,51-142.751,51Z"></path><path class="cls-9" d="M490.078,292.839L406.4,27.968,422.8,0Z"></path><path class="cls-10" d="M288.257,70.742L491.718,297.774,280.053,120.1Z"></path><path class="cls-11" d="M491.718,306L93,69.1l3.282,74.032Z"></path></svg> 