<?xml version="1.0" encoding="UTF-8"?> <!-- Generator: Adobe Illustrator 22.1.0, SVG Export Plug-In . SVG Version: 6.00 Build 0) --> <svg xmlns="http://www.w3.org/2000/svg" xmlns:xlink="http://www.w3.org/1999/xlink" id="celular_" x="0px" y="0px" viewBox="0 0 637 486.1" style="enable-background:new 0 0 637 486.1;" xml:space="preserve"> <style type="text/css"> .st0{opacity:0.45;fill:#111111;enable-background:new ;} .st1{fill:#C34222;} .st2{fill:url(#SVGID_1_);} .st3{fill:#9B1617;} .st4{fill:#9C1718;} .st5{fill:#8F5F13;} .st6{fill:#B37719;} .st7{fill:#F3A020;} .st8{fill:#452C05;} .st9{fill:#342205;} .st10{fill:#64420D;} .st11{fill:#6E480D;} .st12{fill:#FEB74B;} .st13{fill:#D18C1F;} </style> <path id="Shape_2_copy" class="st0" d="M11,383.5c-9,16.3,2,28.3,16,33c10.7,3.6,213,68,213,68s40.2,7.6,65-11s327-256,327-256 s5-4.9,5-12c0-4.4-0.3-8.7-1-13c-1.8-4.4-5.5-7.7-10-9c-3.5-1-84.1-24.6-221.2-57c-14.2-4.4-35.3,1.2-53.2,14.4 C252.1,226.4,27.3,372.1,11,383.5z"></path> <path class="st1" d="M0,337.5v17c0,0,4.3,12.4,15,16s213,68,213,68s40.2,7.6,65-11s327-256,327-256s5-4.9,5-12c0-4.4-0.3-8.7-1-13 c-1.8-4.4-5.5-7.7-10-9C606.3,135.3,0,337.5,0,337.5z"></path> <linearGradient id="SVGID_1_" gradientUnits="userSpaceOnUse" x1="310.8058" y1="-17.2005" x2="310.8058" y2="318.2662" gradientTransform="matrix(1 0 0 -1 0 405.0502)"> <stop offset="0" style="stop-color:#7B7B7B"></stop> <stop offset="1" style="stop-color:#CACACA"></stop> </linearGradient> <path class="st2" d="M9,324.5l367-235c0,0,17-6.8,48,1s186,45,186,45s20.2,8.2,7,21s-325,252-325,252s-28.1,22.4-66,10 s-216-68-216-68S-11.5,345,9,324.5z"></path> <path id="Rounded_Rectangle_2" class="st1" d="M460.5,107.7l44.1,10c1.4,0.3,2.3,1.7,2,3.1l-0.2,0.8c-0.3,1.4-1.7,2.3-3.1,2 l-44.1-10c-1.4-0.3-2.3-1.7-2-3.1l0.2-0.8C457.7,108.3,459.1,107.4,460.5,107.7C460.5,107.7,460.5,107.7,460.5,107.7z"></path> <path class="st3" d="M105,386.5l33,11c0,0,7.5,4.7,0,9c-10.7-2.8-35-11-35-11S96.5,388.6,105,386.5z"></path> <ellipse class="st4" cx="97.5" cy="384.5" rx="1.5" ry="2"></ellipse> <path class="st1" d="M585,190.5l20-15c0,0,5.4,1.2,1,5s-19,15-19,15S583.2,196.4,585,190.5z"></path> <path id="Ellipse_5_copy" class="st3" d="M149.4,342.9c14.6-1.8,27.3,3.9,28.5,12.8s-9.8,17.6-24.3,19.4s-27.3-3.9-28.5-12.8 S134.8,344.7,149.4,342.9z"></path> <path class="st1" d="M149.4,345.5c11.7-1.5,22,3.2,22.9,10.5s-7.8,14.4-19.6,15.8s-22-3.2-22.9-10.5S137.7,347,149.4,345.5z"></path> <g id="Grade_do_fundo"> <path class="st5" d="M309,129.5l93,25l-3,4l-90-23V129.5z"></path> <path id="Shape_50_copy" class="st5" d="M309,96.5l99,26l-1,5l-98-25V96.5z"></path> <path id="Shape_51_copy_4" class="st5" d="M328,168.5l3-98l6,2l-6,99L328,168.5z"></path> <path id="Shape_51_copy_5" class="st5" d="M349,177.5l5-101l6,2l-8,102L349,177.5z"></path> <path id="Shape_51_copy_6" class="st5" d="M369,191.5l5-107l6,2l-8,108L369,191.5z"></path> <path id="Shape_51_copy_7" class="st5" d="M387,192.5l5-107l6,2l-8,108L387,192.5z"></path> <path class="st6" d="M309,105.5l96,26l2-5l-98-25"></path> <path id="Shape_48_copy" class="st6" d="M309,138.5l91,24l2-5l-93-23"></path> <path class="st6" d="M324,168.5l3-98l6,2l-6,99L324,168.5z"></path> <path id="Shape_51_copy" class="st6" d="M345,177.5l5-107l6,2l-8,108L345,177.5z"></path> <path id="Shape_51_copy_2" class="st6" d="M366,191.5l5-107l6,2l-8,108L366,191.5z"></path> <path id="Shape_51_copy_3" class="st6" d="M384,192.5l5-107l6,2l-8,108L384,192.5z"></path> </g> <g id="Grades_internas"> <path class="st5" d="M186,160.5l118-65l2,6l-118,65L186,160.5z"></path> <path id="Shape_43_copy" class="st5" d="M196,189.5l111-61v6l-110,60L196,189.5z"></path> <path class="st5" d="M198,124.5l-5,2l29,87l5,2"></path> <path id="Shape_39_copy" class="st5" d="M219,114l-5.1,1.8l23.1,89.7l7,0.7"></path> <path id="Shape_39_copy_2" class="st5" d="M245.3,99.1l-6.3,2.5l16,92l4,3"></path> <path id="Shape_39_copy_3" class="st5" d="M267.3,88.1l-7.3,2.5l12,93l3,3"></path> <path class="st5" d="M283,77.5l-3,4l6,95l3,1L283,77.5z"></path> <path class="st5" d="M304,67.5l-3,2l4,93l2,4L304,67.5z"></path> <path class="st6" d="M175,132.5l131-70l107,29l-1,5l-105-29l-130,69L175,132.5z"></path> <path class="st6" d="M196,124.5l30,93l4-5l-30-91L196,124.5z"></path> <path id="Shape_38_copy" class="st6" d="M216.4,114l27,93.9l4.2-4.9l-27.1-91.9L216.4,114z"></path> <path id="Shape_38_copy_2" class="st6" d="M242.2,99.8l16.6,96.3l4.7-4.4l-16.9-94.3L242.2,99.8z"></path> <path id="Shape_38_copy_3" class="st6" d="M262.6,89.4l12,97l4.9-4.2l-12.4-95L262.6,89.4z"></path> <path id="Shape_38_copy_4" class="st6" d="M282.4,79.3l6.7,97.5l5.1-3.9L287,77.3L282.4,79.3z"></path> <path id="Shape_38_copy_5" class="st6" d="M302.9,68.1l3.6,97.7l5.2-3.7l-4.2-95.7L302.9,68.1z"></path> <path class="st6" d="M192,162.5l114-62v5l-113,61L192,162.5z"></path> <path id="Shape_42_copy" class="st6" d="M199,192.5l107-58v5l-106,57L199,192.5z"></path> </g> <g id="Carrinho_topo"> <path class="st7" d="M284,171.5l-121-37l143-76l117,32l-6,4l-111-31l-131,70l110,31L284,171.5z"></path> <path class="st7" d="M282,164.5l132-74l5,3l-134,79L282,164.5z"></path> </g> <g id="roda_traseira"> <path class="st5" d="M379,204.5l14-8l-3,25l-9,2L379,204.5z"></path> <path class="st8" d="M378,227.5v-23l5-2v25H378z"></path> <path class="st8" d="M387,200.5l3-2c0,0-1.1,15.3-2,21c-0.3,2.1-1,0-1,0V200.5z"></path> <path id="Ellipse_3_copy_2" class="st5" d="M215,244.5c9.7,0,12,7.2,12,18c-0.1,5.6-2.2,10.9-6,15c-3.6,3.9-8.7,6.1-14,6 c-10.1-2.8-13-7.2-13-18c0-3.8,1.8-8.6,3.3-11.9C199.9,247.8,208.8,244.5,215,244.5z"></path> <path id="Ellipse_2_copy_2" class="st9" d="M215,250.5c6.6,0,9.3,3.2,9,12c-0.3,8.9-5.5,18.1-10.8,17.5c-6.6-0.7-9.2-3.7-9.2-12.5 S208.1,254.1,215,250.5z"></path> <path id="Shape_7_copy_2" class="st7" d="M218,260.5c-1.2-0.8-2.6-1.2-4-1c-2.3,0.3-6.4,6.8-2,11c3.8,1.1,4,0,4,0 S218.6,267.1,218,260.5z"></path> </g> <g id="aro_roda"> <path class="st10" d="M223,265.5l-4-4l32-18l7,2L223,265.5z"></path> <path class="st11" d="M376,232.5l7-7l-29-7l-11,5L376,232.5z"></path> <path class="st8" d="M374,236.5l-34-10l5-4l36,10L374,236.5z"></path> <path class="st11" d="M219,232.5l5,1v30l-5,2V232.5z"></path> <path id="Shape_13_copy" class="st11" d="M293,256.5l6-3v33l-6,3V256.5z"></path> <path class="st11" d="M314,284.5l-6-6l73-48l2,5L314,284.5z"></path> <path class="st11" d="M286,288.5l-66-23l5-2l64,19L286,288.5z"></path> <path class="st8" d="M223,264.5l32-19l5,2l-30,18L223,264.5z"></path> <path id="a_lad_direito" class="st5" d="M302,292.5l85-61l-5,10l-80,59V292.5z"></path> <path id="a_front" class="st5" d="M287,287.5l-68-23v-31l-6-2l1,38l79,27v-40l-7-2L287,287.5z"></path> </g> <g id="rodas"> <path class="st5" d="M301,274.5c9.7,0,17,5.2,17,16c-0.1,5.9-2.2,11.5-6,16c-3.6,3.9-8.7,6.1-14,6c-9.7,0-14-8.2-14-19 S291.3,274.5,301,274.5z"></path> <path class="st9" d="M306,279.5c6.6,0,9.3,3.2,9,12c-0.3,8.9-5.5,18.1-10.8,17.5c-6.6-0.7-8.2-3.7-8.2-12.5S299.1,283.1,306,279.5z "></path> <path class="st11" d="M309,289.5c-1.2-0.8-2.6-1.2-4-1c-2.3,0.3-6.4,6.8-2,11c3.8,1.1,4,0,4,0S309.6,296.1,309,289.5z"></path> <path id="A_ponta_1" class="st7" d="M308.6,289.6c1.9,0.4,3,3.1,2.4,6.1s-2.6,5.1-4.5,4.7s-3-3.1-2.4-6.1S306.7,289.3,308.6,289.6z "></path> <path id="Ellipse_3_copy" class="st5" d="M392,216.5c9.1,0,16,5.2,16,16c-0.1,5.8-2.1,11.4-5.6,16c-3.3,3.8-8.1,6-13.2,6 c-9.1,0-13.2-8.2-13.2-19S382.9,216.5,392,216.5z"></path> <path id="Ellipse_2_copy" class="st9" d="M396,221.5c6.6,0,9.3,3.2,9,12c-0.3,8.9-5.5,18.1-10.8,17.5c-6.6-0.7-8.2-3.7-8.2-12.5 S389.1,225.1,396,221.5z"></path> <path id="Shape_7_copy" class="st11" d="M399.1,232.4c-1.1-0.7-2.3-1-3.6-0.8c-2.1,0.2-5.7,5.7-1.8,9.2c3.4,0.9,3.6,0,3.6,0 S399.7,237.9,399.1,232.4z"></path> <path id="A_ponta2" class="st7" d="M398.7,232.5c1.7,0.3,2.6,2.6,2.1,5.1s-2.3,4.2-4,3.9s-2.6-2.6-2.1-5.1S397,232.2,398.7,232.5z"></path> </g> <g id="cesta"> <path id="Fundo" class="st12" d="M204,224.5l105-62l87,27l-103,64L204,224.5z"></path> </g> <g id="grade_esquerda"> <path id="lado_copy" class="st7" d="M328,232.5h-3l0-82.1l5.1-1.9L328,232.5z"></path> <path id="lado_copy_6" class="st7" d="M313.6,240.5l-3,0.1l-3.1-82l5-2.1L313.6,240.5z"></path> <path id="lado_copy_2" class="st7" d="M347.9,221.6l-3-1.1l6-86l5.1-1.9L347.9,221.6z"></path> <path id="lado_copy_3" class="st7" d="M360.9,214.6l-3-1.1l14-91l4.1-0.9L360.9,214.6z"></path> <path id="lado_copy_4" class="st7" d="M376.9,203.6l-3-1.1l17-91l4.1-0.9L376.9,203.6z"></path> <path id="lado_copy_5" class="st7" d="M394,193.5l-2-4l19-90l5-1L394,193.5z"></path> <path class="st5" d="M204,230.5l-2-8l91,29l104-63l-1,7l-103,63L204,230.5z"></path> </g> <g id="Grade_esquerda-2"> <path class="st13" d="M185,165.5l5-2l100,29l-3,5L185,165.5z"></path> <path id="Shape_29_copy" class="st13" d="M195,194.3l4.6-1.8l91.4,25.6l-2.7,4.4L195,194.3z"></path> <path class="st13" d="M206,223.5l3-3l-27-77l-5-1L206,223.5z"></path> <path id="Shape_30_copy" class="st13" d="M226.4,231l3.1-2.9l-23.9-78l-6.6-2.6L226.4,231z"></path> <path id="Shape_30_copy_2" class="st13" d="M250.4,237l3.1-2.9l-19.9-75l-6.6-2.6L250.4,237z"></path> <path id="Shape_30_copy_3" class="st13" d="M270.4,245l3.1-2.9l-13.9-76l-5.6-2.6L270.4,245z"></path> <path class="st5" d="M284,169.5l-120-35l1,5l9.2,2.6c4.7,1.3-3.4,0,8.4,2.4l101.4,29V169.5z"></path> <path class="st5" d="M175,141.5l28,82l4,1l-30-83H175z"></path> <path class="st5" d="M292,252.5"></path> <path class="st5" d="M223,229.5c0.7,1.2,5,2,5,2l-27-83l-6-2C195,146.5,222.3,228.3,223,229.5z"></path> <path id="Shape_24_copy" class="st5" d="M246,238.5l5,1l-23-83l-6-2L246,238.5z"></path> <path class="st5" d="M204,223.5"></path> <path class="st5" d="M267,246.5h4l-16-82l-4-1L267,246.5z"></path> <path class="st5" d="M180,163.5c0,0-0.8,5.5,1,7s110,32,110,32v-5L180,163.5z"></path> <path class="st5" d="M292,251.5l-4-1l-2-81h5L292,251.5z"></path> <path id="Shape_27_copy" class="st5" d="M190.2,192.5c0,0-0.7,5.1,0.9,6.5S294,228.5,294,228.5v-4.6L190.2,192.5z"></path> </g> <g id="Grade_direita"> <path id="aaaa" class="st13" d="M292,197.5l1-6l113-65l3,2L292,197.5z"></path> <path id="aaaa_copy" class="st13" d="M292,225.5l1-6l107-62l3,2L292,225.5z"></path> <path class="st5" d="M293,195.5l117-68l-2,5l-115,67V195.5z"></path> <path class="st5" d="M312,240.5l-1-82l3-3l0.6,83L312,240.5z"></path> <path id="Shape_32_copy" class="st5" d="M326.8,231.5l2.2-84l3.2-1.9l-2.8,84L326.8,231.5z"></path> <path class="st5" d="M347,219.5l8-87l4-3l-10,89L347,219.5z"></path> <path class="st5" d="M361,210.5l14-89l4-3l-16,91L361,210.5z"></path> <path id="Shape_34_copy" class="st5" d="M376,202.5l18-92l4-3l-20,94L376,202.5z"></path> <path id="Shape_31_copy" class="st5" d="M293,223.5l110-65l-2,5l-108,64V223.5z"></path> <path id="margem_a" class="st5" d="M292,254.5l-2-84l-6,3v-4l139-79v5l-6,3l-20,90l-3,2l21-91l-122,70l2,84L292,254.5z"></path> </g> <g id="Alça"> <path class="st6" d="M320,63.5c0,0,0-0.4-0.1-1.1c-0.2-3.6-0.9-14.9-0.9-14.9l32-35v-8l-38,43v16"></path> <path class="st6" d="M351,12.5l90,25l5-5v-3l-95-24V12.5z"></path> <path class="st6" d="M423,95.5l3-2v-19l30-40c0,0,2.8-8-4-8c-3.3,3.7-7,12-7,12l-20,25l-8,15l2,15L423,95.5z"></path> <path class="st7" d="M306,59.5l1-15c1.3-2.6,3-4.9,5-7c14.8-16.6,28-33,28-33s3.9-6.4,13-4c41.9,11.7,98.1,21.9,101,27s-1,7-1,7 l-27,35c-1.9,2.2-3,5.1-3,8v14c-0.5-0.3-5.3,3.4-7,3c-3.9-0.9-6-6-6-6s-1.5-12.8,3-18s31-38,31-38l-93-24l-35,39l1,18 c-1.7-0.5-3.4-1.2-5-2C309.9,62.3,307.9,61,306,59.5z"></path> </g> </svg> 